<svg xmlns="http://www.w3.org/2000/svg" xmlns:xlink="http://www.w3.org/1999/xlink" version="1.1" width="256" height="256" viewBox="0 0 256 256" xml:space="preserve">

<defs>
</defs>
<g style="stroke: none; stroke-width: 0; stroke-dasharray: none; stroke-linecap: butt; stroke-linejoin: miter; stroke-miterlimit: 10; fill: none; fill-rule: nonzero; opacity: 1;" transform="translate(1.4065934065934016 1.4065934065934016) scale(2.81 2.81)" >
	<path d="M 52.388 51.388 V 1 c 0 -0.552 -0.447 -1 -1 -1 H 1 C 0.448 0 0 0.448 0 1 v 50.388 c 0 0.553 0.448 1 1 1 h 50.388 C 51.94 52.388 52.388 51.94 52.388 51.388 z M 50.388 50.388 H 2 V 2 h 48.388 V 50.388 z" style="stroke: none; stroke-width: 1; stroke-dasharray: none; stroke-linecap: butt; stroke-linejoin: miter; stroke-miterlimit: 10; fill: rgb(0,0,0); fill-rule: nonzero; opacity: 1;" transform=" matrix(1 0 0 1 0 0) " stroke-linecap="round" />
	<path d="M 89 37.612 H 63.664 c -0.553 0 -1 0.448 -1 1 s 0.447 1 1 1 H 88 V 88 H 39.613 V 63.664 c 0 -0.553 -0.448 -1 -1 -1 s -1 0.447 -1 1 V 89 c 0 0.553 0.448 1 1 1 H 89 c 0.553 0 1 -0.447 1 -1 V 38.612 C 90 38.06 89.553 37.612 89 37.612 z" style="stroke: none; stroke-width: 1; stroke-dasharray: none; stroke-linecap: butt; stroke-linejoin: miter; stroke-miterlimit: 10; fill: rgb(0,0,0); fill-rule: nonzero; opacity: 1;" transform=" matrix(1 0 0 1 0 0) " stroke-linecap="round" />
	<path d="M 53.45 80.123 c 0.107 0.037 0.218 0.055 0.326 0.055 c 0.415 0 0.803 -0.26 0.945 -0.674 l 3.607 -10.443 h 10.956 l 3.606 10.443 c 0.18 0.522 0.752 0.797 1.271 0.619 c 0.522 -0.181 0.8 -0.75 0.619 -1.271 L 64.752 49.808 c -0.14 -0.403 -0.519 -0.674 -0.945 -0.674 s -0.806 0.271 -0.945 0.674 l -10.03 29.044 C 52.65 79.373 52.928 79.942 53.45 80.123 z M 63.807 53.197 l 4.787 13.863 h -9.575 L 63.807 53.197 z" style="stroke: none; stroke-width: 1; stroke-dasharray: none; stroke-linecap: butt; stroke-linejoin: miter; stroke-miterlimit: 10; fill: rgb(0,0,0); fill-rule: nonzero; opacity: 1;" transform=" matrix(1 0 0 1 0 0) " stroke-linecap="round" />
	<path d="M 10.914 16.005 h 21.748 c -1.808 4.414 -4.797 8.835 -8.191 12.843 c -2.188 -2.782 -4.086 -5.679 -5.257 -8.309 c -0.224 -0.505 -0.815 -0.73 -1.32 -0.507 c -0.504 0.225 -0.731 0.815 -0.507 1.32 c 1.306 2.933 3.379 6.076 5.739 9.041 c -2.978 3.326 -6.169 6.312 -9.086 8.674 c -0.429 0.348 -0.495 0.978 -0.148 1.407 c 0.198 0.244 0.487 0.371 0.778 0.371 c 0.221 0 0.444 -0.073 0.629 -0.223 c 2.92 -2.365 6.108 -5.342 9.107 -8.667 c 2.908 3.431 6.105 6.509 8.798 8.578 c 0.182 0.14 0.396 0.207 0.609 0.207 c 0.3 0 0.597 -0.134 0.793 -0.391 c 0.336 -0.438 0.254 -1.066 -0.184 -1.402 c -2.674 -2.054 -5.836 -5.143 -8.673 -8.523 c 3.812 -4.459 7.166 -9.447 9.059 -14.419 h 7.917 c 0.552 0 1 -0.448 1 -1 s -0.448 -1 -1 -1 H 26.229 v -3.909 c 0 -0.552 -0.448 -1 -1 -1 s -1 0.448 -1 1 v 3.909 H 10.914 c -0.552 0 -1 0.448 -1 1 S 10.362 16.005 10.914 16.005 z" style="stroke: none; stroke-width: 1; stroke-dasharray: none; stroke-linecap: butt; stroke-linejoin: miter; stroke-miterlimit: 10; fill: rgb(0,0,0); fill-rule: nonzero; opacity: 1;" transform=" matrix(1 0 0 1 0 0) " stroke-linecap="round" />
	<path d="M 60.615 10.904 c 0.051 0.123 0.124 0.233 0.217 0.326 l 5.356 5.356 c 0.195 0.195 0.451 0.293 0.707 0.293 s 0.512 -0.098 0.707 -0.293 c 0.391 -0.391 0.391 -1.023 0 -1.414 l -3.65 -3.65 h 14.526 v 17.067 c 0 0.552 0.447 1 1 1 s 1 -0.448 1 -1 V 10.522 c 0 -0.552 -0.447 -1 -1 -1 H 63.952 l 3.65 -3.65 c 0.391 -0.391 0.391 -1.023 0 -1.414 s -1.023 -0.391 -1.414 0 l -5.356 5.356 c -0.093 0.092 -0.166 0.203 -0.217 0.326 C 60.514 10.384 60.514 10.66 60.615 10.904 z" style="stroke: none; stroke-width: 1; stroke-dasharray: none; stroke-linecap: butt; stroke-linejoin: miter; stroke-miterlimit: 10; fill: rgb(0,0,0); fill-rule: nonzero; opacity: 1;" transform=" matrix(1 0 0 1 0 0) " stroke-linecap="round" />
	<path d="M 29.384 79.093 c -0.051 -0.122 -0.124 -0.231 -0.216 -0.323 l -5.356 -5.357 c -0.391 -0.391 -1.023 -0.391 -1.414 0 s -0.391 1.023 0 1.414 l 3.65 3.65 H 11.522 V 61.411 c 0 -0.553 -0.448 -1 -1 -1 s -1 0.447 -1 1 v 18.067 c 0 0.553 0.448 1 1 1 h 15.526 l -3.65 3.649 c -0.391 0.391 -0.391 1.023 0 1.414 c 0.195 0.195 0.451 0.293 0.707 0.293 s 0.512 -0.098 0.707 -0.293 l 5.356 -5.356 c 0.092 -0.092 0.165 -0.201 0.216 -0.323 c 0.051 -0.121 0.078 -0.251 0.078 -0.385 S 29.435 79.214 29.384 79.093 z" style="stroke: none; stroke-width: 1; stroke-dasharray: none; stroke-linecap: butt; stroke-linejoin: miter; stroke-miterlimit: 10; fill: rgb(0,0,0); fill-rule: nonzero; opacity: 1;" transform=" matrix(1 0 0 1 0 0) " stroke-linecap="round" />
</g>
</svg>